<?xml version="1.0" encoding="UTF-8" standalone="no"?>
<!DOCTYPE svg PUBLIC "-//W3C//DTD SVG 1.1//EN"
 "http://www.w3.org/Graphics/SVG/1.1/DTD/svg11.dtd">
<!-- Generated by graphviz version 2.40.1 (20161225.0304)
 -->
<!-- Title: dependencies Pages: 1 -->
<svg width="1140pt" height="211pt"
 viewBox="0.00 0.00 1140.00 211.00" xmlns="http://www.w3.org/2000/svg" xmlns:xlink="http://www.w3.org/1999/xlink">
<g id="graph0" class="graph" transform="scale(1 1) rotate(0) translate(4 207)">
<title>dependencies</title>
<polygon fill="#ffffff" stroke="transparent" points="-4,4 -4,-207 1136,-207 1136,4 -4,4"/>
<text text-anchor="start" x="545.0091" y="-42.4" font-family="sans-serif" font-weight="bold" font-size="14.00" fill="#000000">Legend</text>
<polygon fill="#ffffb3" stroke="transparent" points="332,-10 332,-30 352,-30 352,-10 332,-10"/>
<text text-anchor="start" x="355.629" y="-15.4" font-family="sans-serif" font-size="14.00" fill="#000000"> &#160;Declarations</text>
<polygon fill="#8dd3c7" stroke="transparent" points="445,-10 445,-30 465,-30 465,-10 445,-10"/>
<text text-anchor="start" x="468.7251" y="-15.4" font-family="sans-serif" font-size="14.00" fill="#000000"> &#160;Module</text>
<polygon fill="#80b1d3" stroke="transparent" points="531,-10 531,-30 551,-30 551,-10 531,-10"/>
<text text-anchor="start" x="554.7812" y="-15.4" font-family="sans-serif" font-size="14.00" fill="#000000"> &#160;Bootstrap</text>
<polygon fill="#fdb462" stroke="transparent" points="628,-10 628,-30 648,-30 648,-10 628,-10"/>
<text text-anchor="start" x="651.6732" y="-15.4" font-family="sans-serif" font-size="14.00" fill="#000000"> &#160;Providers</text>
<polygon fill="#fb8072" stroke="transparent" points="724,-10 724,-30 744,-30 744,-10 724,-10"/>
<text text-anchor="start" x="747.7258" y="-15.4" font-family="sans-serif" font-size="14.00" fill="#000000"> &#160;Exports</text>
<g id="clust1" class="cluster">
<title>cluster_AdminModule</title>
<polygon fill="none" stroke="#000000" stroke-dasharray="1,5" points="8,-70 8,-195 1124,-195 1124,-70 8,-70"/>
</g>
<g id="clust2" class="cluster">
<title>cluster_AdminModule_declarations</title>
<polygon fill="none" stroke="#000000" points="280,-78 280,-130 1116,-130 1116,-78 280,-78"/>
</g>
<g id="clust8" class="cluster">
<title>cluster_AdminModule_imports</title>
<polygon fill="none" stroke="#000000" points="158,-78 158,-130 272,-130 272,-78 158,-78"/>
</g>
<g id="clust11" class="cluster">
<title>cluster_AdminModule_providers</title>
<polygon fill="none" stroke="#000000" points="16,-78 16,-130 150,-130 150,-78 16,-78"/>
</g>
<!-- AdminLayoutComponent -->
<g id="node1" class="node">
<title>AdminLayoutComponent</title>
<polygon fill="#ffffb3" stroke="#000000" points="1107.878,-122 948.122,-122 948.122,-86 1107.878,-86 1107.878,-122"/>
<text text-anchor="middle" x="1028" y="-99.8" font-family="Times,serif" font-size="14.00" fill="#000000">AdminLayoutComponent</text>
</g>
<!-- AdminModule -->
<g id="node6" class="node">
<title>AdminModule</title>
<polygon fill="#8dd3c7" stroke="#000000" points="563.4386,-187 560.4386,-191 539.4386,-191 536.4386,-187 464.5614,-187 464.5614,-151 563.4386,-151 563.4386,-187"/>
<text text-anchor="middle" x="514" y="-164.8" font-family="Times,serif" font-size="14.00" fill="#000000">AdminModule</text>
</g>
<!-- AdminLayoutComponent&#45;&gt;AdminModule -->
<g id="edge1" class="edge">
<title>AdminLayoutComponent&#45;&gt;AdminModule</title>
<path fill="none" stroke="#000000" d="M1028,-122.2921C1028,-144.2057 1028,-178 1028,-178 1028,-178 573.2845,-178 573.2845,-178"/>
<polygon fill="#000000" stroke="#000000" points="573.2845,-174.5001 563.2845,-178 573.2844,-181.5001 573.2845,-174.5001"/>
</g>
<!-- CreatePageComponent -->
<g id="node2" class="node">
<title>CreatePageComponent</title>
<polygon fill="#ffffb3" stroke="#000000" points="930.5758,-122 785.4242,-122 785.4242,-86 930.5758,-86 930.5758,-122"/>
<text text-anchor="middle" x="858" y="-99.8" font-family="Times,serif" font-size="14.00" fill="#000000">CreatePageComponent</text>
</g>
<!-- CreatePageComponent&#45;&gt;AdminModule -->
<g id="edge2" class="edge">
<title>CreatePageComponent&#45;&gt;AdminModule</title>
<path fill="none" stroke="#000000" d="M858,-122.1061C858,-141.3391 858,-169 858,-169 858,-169 573.2868,-169 573.2868,-169"/>
<polygon fill="#000000" stroke="#000000" points="573.2868,-165.5001 563.2868,-169 573.2868,-172.5001 573.2868,-165.5001"/>
</g>
<!-- DashboardPageComponent -->
<g id="node3" class="node">
<title>DashboardPageComponent</title>
<polygon fill="#ffffb3" stroke="#000000" points="767.6853,-122 598.3147,-122 598.3147,-86 767.6853,-86 767.6853,-122"/>
<text text-anchor="middle" x="683" y="-99.8" font-family="Times,serif" font-size="14.00" fill="#000000">DashboardPageComponent</text>
</g>
<!-- DashboardPageComponent&#45;&gt;AdminModule -->
<g id="edge3" class="edge">
<title>DashboardPageComponent&#45;&gt;AdminModule</title>
<path fill="none" stroke="#000000" d="M683,-122.027C683,-138.3976 683,-160 683,-160 683,-160 573.3361,-160 573.3361,-160"/>
<polygon fill="#000000" stroke="#000000" points="573.3361,-156.5001 563.3361,-160 573.3361,-163.5001 573.3361,-156.5001"/>
</g>
<!-- EditPageComponent -->
<g id="node4" class="node">
<title>EditPageComponent</title>
<polygon fill="#ffffb3" stroke="#000000" points="579.8781,-122 448.1219,-122 448.1219,-86 579.8781,-86 579.8781,-122"/>
<text text-anchor="middle" x="514" y="-99.8" font-family="Times,serif" font-size="14.00" fill="#000000">EditPageComponent</text>
</g>
<!-- EditPageComponent&#45;&gt;AdminModule -->
<g id="edge4" class="edge">
<title>EditPageComponent&#45;&gt;AdminModule</title>
<path fill="none" stroke="#000000" d="M514,-122.1061C514,-122.1061 514,-140.991 514,-140.991"/>
<polygon fill="#000000" stroke="#000000" points="510.5001,-140.9909 514,-150.991 517.5001,-140.991 510.5001,-140.9909"/>
</g>
<!-- LoginPageComponent -->
<g id="node5" class="node">
<title>LoginPageComponent</title>
<polygon fill="#ffffb3" stroke="#000000" points="429.9874,-122 288.0126,-122 288.0126,-86 429.9874,-86 429.9874,-122"/>
<text text-anchor="middle" x="359" y="-99.8" font-family="Times,serif" font-size="14.00" fill="#000000">LoginPageComponent</text>
</g>
<!-- LoginPageComponent&#45;&gt;AdminModule -->
<g id="edge5" class="edge">
<title>LoginPageComponent&#45;&gt;AdminModule</title>
<path fill="none" stroke="#000000" d="M359,-122.027C359,-138.3976 359,-160 359,-160 359,-160 454.5309,-160 454.5309,-160"/>
<polygon fill="#000000" stroke="#000000" points="454.5309,-163.5001 464.5309,-160 454.5308,-156.5001 454.5309,-163.5001"/>
</g>
<!-- SharedModule -->
<g id="node7" class="node">
<title>SharedModule</title>
<polygon fill="#8dd3c7" stroke="#000000" points="264.4231,-122 261.4231,-126 240.4231,-126 237.4231,-122 165.5769,-122 165.5769,-86 264.4231,-86 264.4231,-122"/>
<text text-anchor="middle" x="215" y="-99.8" font-family="Times,serif" font-size="14.00" fill="#000000">SharedModule</text>
</g>
<!-- SharedModule&#45;&gt;AdminModule -->
<g id="edge6" class="edge">
<title>SharedModule&#45;&gt;AdminModule</title>
<path fill="none" stroke="#000000" d="M215,-122.1061C215,-141.3391 215,-169 215,-169 215,-169 454.6262,-169 454.6262,-169"/>
<polygon fill="#000000" stroke="#000000" points="454.6263,-172.5001 464.6262,-169 454.6262,-165.5001 454.6263,-172.5001"/>
</g>
<!-- AuthService -->
<g id="node8" class="node">
<title>AuthService</title>
<ellipse fill="#fdb462" stroke="#000000" cx="83" cy="-104" rx="59.1083" ry="18"/>
<text text-anchor="middle" x="83" y="-99.8" font-family="Times,serif" font-size="14.00" fill="#000000">AuthService</text>
</g>
<!-- AuthService&#45;&gt;AdminModule -->
<g id="edge7" class="edge">
<title>AuthService&#45;&gt;AdminModule</title>
<path fill="none" stroke="#000000" d="M83,-122.2921C83,-144.2057 83,-178 83,-178 83,-178 454.5588,-178 454.5588,-178"/>
<polygon fill="#000000" stroke="#000000" points="454.5589,-181.5001 464.5588,-178 454.5588,-174.5001 454.5589,-181.5001"/>
</g>
</g>
</svg>
