<?xml version="1.0" encoding="UTF-8" standalone="no"?>
<!DOCTYPE svg PUBLIC "-//W3C//DTD SVG 1.1//EN"
 "http://www.w3.org/Graphics/SVG/1.1/DTD/svg11.dtd">
<!-- Generated by graphviz version 2.40.1 (20161225.0304)
 -->
<!-- Title: dependencies Pages: 1 -->
<svg width="2041pt" height="284pt"
 viewBox="0.00 0.00 2041.00 284.00" xmlns="http://www.w3.org/2000/svg" xmlns:xlink="http://www.w3.org/1999/xlink">
<g id="graph0" class="graph" transform="scale(1 1) rotate(0) translate(4 280)">
<title>dependencies</title>
<polygon fill="#ffffff" stroke="transparent" points="-4,4 -4,-280 2037,-280 2037,4 -4,4"/>
<text text-anchor="start" x="995.5091" y="-42.4" font-family="sans-serif" font-weight="bold" font-size="14.00" fill="#000000">Legend</text>
<polygon fill="#ffffb3" stroke="transparent" points="782.5,-10 782.5,-30 802.5,-30 802.5,-10 782.5,-10"/>
<text text-anchor="start" x="806.129" y="-15.4" font-family="sans-serif" font-size="14.00" fill="#000000"> &#160;Declarations</text>
<polygon fill="#8dd3c7" stroke="transparent" points="895.5,-10 895.5,-30 915.5,-30 915.5,-10 895.5,-10"/>
<text text-anchor="start" x="919.2251" y="-15.4" font-family="sans-serif" font-size="14.00" fill="#000000"> &#160;Module</text>
<polygon fill="#80b1d3" stroke="transparent" points="981.5,-10 981.5,-30 1001.5,-30 1001.5,-10 981.5,-10"/>
<text text-anchor="start" x="1005.2812" y="-15.4" font-family="sans-serif" font-size="14.00" fill="#000000"> &#160;Bootstrap</text>
<polygon fill="#fdb462" stroke="transparent" points="1078.5,-10 1078.5,-30 1098.5,-30 1098.5,-10 1078.5,-10"/>
<text text-anchor="start" x="1102.1732" y="-15.4" font-family="sans-serif" font-size="14.00" fill="#000000"> &#160;Providers</text>
<polygon fill="#fb8072" stroke="transparent" points="1174.5,-10 1174.5,-30 1194.5,-30 1194.5,-10 1174.5,-10"/>
<text text-anchor="start" x="1198.2258" y="-15.4" font-family="sans-serif" font-size="14.00" fill="#000000"> &#160;Exports</text>
<g id="clust1" class="cluster">
<title>cluster_AdminModule</title>
<polygon fill="none" stroke="#000000" stroke-dasharray="1,5" points="8,-70 8,-195 1124,-195 1124,-70 8,-70"/>
</g>
<g id="clust2" class="cluster">
<title>cluster_AdminModule_declarations</title>
<polygon fill="none" stroke="#000000" points="158,-78 158,-130 994,-130 994,-78 158,-78"/>
</g>
<g id="clust8" class="cluster">
<title>cluster_AdminModule_imports</title>
<polygon fill="none" stroke="#000000" points="1002,-78 1002,-130 1116,-130 1116,-78 1002,-78"/>
</g>
<g id="clust11" class="cluster">
<title>cluster_AdminModule_providers</title>
<polygon fill="none" stroke="#000000" points="16,-78 16,-130 150,-130 150,-78 16,-78"/>
</g>
<g id="clust12" class="cluster">
<title>cluster_AppModule</title>
<polygon fill="none" stroke="#000000" stroke-dasharray="1,5" points="1132,-70 1132,-268 2025,-268 2025,-70 1132,-70"/>
</g>
<g id="clust13" class="cluster">
<title>cluster_AppModule_declarations</title>
<polygon fill="none" stroke="#000000" points="1292,-78 1292,-130 2017,-130 2017,-78 1292,-78"/>
</g>
<g id="clust19" class="cluster">
<title>cluster_AppModule_imports</title>
<polygon fill="none" stroke="#000000" points="1140,-78 1140,-130 1284,-130 1284,-78 1140,-78"/>
</g>
<g id="clust21" class="cluster">
<title>cluster_AppModule_bootstrap</title>
<polygon fill="none" stroke="#000000" points="1441,-208 1441,-260 1565,-260 1565,-208 1441,-208"/>
</g>
<!-- AdminLayoutComponent -->
<g id="node1" class="node">
<title>AdminLayoutComponent</title>
<polygon fill="#ffffb3" stroke="#000000" points="985.878,-122 826.122,-122 826.122,-86 985.878,-86 985.878,-122"/>
<text text-anchor="middle" x="906" y="-99.8" font-family="Times,serif" font-size="14.00" fill="#000000">AdminLayoutComponent</text>
</g>
<!-- AdminModule -->
<g id="node6" class="node">
<title>AdminModule</title>
<polygon fill="#8dd3c7" stroke="#000000" points="610.4386,-187 607.4386,-191 586.4386,-191 583.4386,-187 511.5614,-187 511.5614,-151 610.4386,-151 610.4386,-187"/>
<text text-anchor="middle" x="561" y="-164.8" font-family="Times,serif" font-size="14.00" fill="#000000">AdminModule</text>
</g>
<!-- AdminLayoutComponent&#45;&gt;AdminModule -->
<g id="edge1" class="edge">
<title>AdminLayoutComponent&#45;&gt;AdminModule</title>
<path fill="none" stroke="#000000" d="M906,-122.0336C906,-139.0597 906,-162 906,-162 906,-162 620.4301,-162 620.4301,-162"/>
<polygon fill="#000000" stroke="#000000" points="620.4301,-158.5001 610.4301,-162 620.4301,-165.5001 620.4301,-158.5001"/>
</g>
<!-- CreatePageComponent -->
<g id="node2" class="node">
<title>CreatePageComponent</title>
<polygon fill="#ffffb3" stroke="#000000" points="808.5758,-122 663.4242,-122 663.4242,-86 808.5758,-86 808.5758,-122"/>
<text text-anchor="middle" x="736" y="-99.8" font-family="Times,serif" font-size="14.00" fill="#000000">CreatePageComponent</text>
</g>
<!-- CreatePageComponent&#45;&gt;AdminModule -->
<g id="edge2" class="edge">
<title>CreatePageComponent&#45;&gt;AdminModule</title>
<path fill="none" stroke="#000000" d="M736,-122.2396C736,-137.5706 736,-157 736,-157 736,-157 620.6799,-157 620.6799,-157"/>
<polygon fill="#000000" stroke="#000000" points="620.6799,-153.5001 610.6799,-157 620.6798,-160.5001 620.6799,-153.5001"/>
</g>
<!-- DashboardPageComponent -->
<g id="node3" class="node">
<title>DashboardPageComponent</title>
<polygon fill="#ffffb3" stroke="#000000" points="645.6853,-122 476.3147,-122 476.3147,-86 645.6853,-86 645.6853,-122"/>
<text text-anchor="middle" x="561" y="-99.8" font-family="Times,serif" font-size="14.00" fill="#000000">DashboardPageComponent</text>
</g>
<!-- DashboardPageComponent&#45;&gt;AdminModule -->
<g id="edge3" class="edge">
<title>DashboardPageComponent&#45;&gt;AdminModule</title>
<path fill="none" stroke="#000000" d="M561,-122.1061C561,-122.1061 561,-140.991 561,-140.991"/>
<polygon fill="#000000" stroke="#000000" points="557.5001,-140.9909 561,-150.991 564.5001,-140.991 557.5001,-140.9909"/>
</g>
<!-- EditPageComponent -->
<g id="node4" class="node">
<title>EditPageComponent</title>
<polygon fill="#ffffb3" stroke="#000000" points="457.8781,-122 326.1219,-122 326.1219,-86 457.8781,-86 457.8781,-122"/>
<text text-anchor="middle" x="392" y="-99.8" font-family="Times,serif" font-size="14.00" fill="#000000">EditPageComponent</text>
</g>
<!-- EditPageComponent&#45;&gt;AdminModule -->
<g id="edge4" class="edge">
<title>EditPageComponent&#45;&gt;AdminModule</title>
<path fill="none" stroke="#000000" d="M392,-122.027C392,-138.3976 392,-160 392,-160 392,-160 501.6639,-160 501.6639,-160"/>
<polygon fill="#000000" stroke="#000000" points="501.6639,-163.5001 511.6639,-160 501.6639,-156.5001 501.6639,-163.5001"/>
</g>
<!-- LoginPageComponent -->
<g id="node5" class="node">
<title>LoginPageComponent</title>
<polygon fill="#ffffb3" stroke="#000000" points="307.9874,-122 166.0126,-122 166.0126,-86 307.9874,-86 307.9874,-122"/>
<text text-anchor="middle" x="237" y="-99.8" font-family="Times,serif" font-size="14.00" fill="#000000">LoginPageComponent</text>
</g>
<!-- LoginPageComponent&#45;&gt;AdminModule -->
<g id="edge5" class="edge">
<title>LoginPageComponent&#45;&gt;AdminModule</title>
<path fill="none" stroke="#000000" d="M237,-122.1061C237,-141.3391 237,-169 237,-169 237,-169 501.4387,-169 501.4387,-169"/>
<polygon fill="#000000" stroke="#000000" points="501.4387,-172.5001 511.4387,-169 501.4386,-165.5001 501.4387,-172.5001"/>
</g>
<!-- SharedModule -->
<g id="node7" class="node">
<title>SharedModule</title>
<polygon fill="#8dd3c7" stroke="#000000" points="1108.4231,-122 1105.4231,-126 1084.4231,-126 1081.4231,-122 1009.5769,-122 1009.5769,-86 1108.4231,-86 1108.4231,-122"/>
<text text-anchor="middle" x="1059" y="-99.8" font-family="Times,serif" font-size="14.00" fill="#000000">SharedModule</text>
</g>
<!-- SharedModule&#45;&gt;AdminModule -->
<g id="edge6" class="edge">
<title>SharedModule&#45;&gt;AdminModule</title>
<path fill="none" stroke="#000000" d="M1042.5963,-122.2222C1042.5963,-140.8285 1042.5963,-167 1042.5963,-167 1042.5963,-167 620.276,-167 620.276,-167"/>
<polygon fill="#000000" stroke="#000000" points="620.276,-163.5001 610.276,-167 620.276,-170.5001 620.276,-163.5001"/>
</g>
<!-- AppModule -->
<g id="node14" class="node">
<title>AppModule</title>
<polygon fill="#8dd3c7" stroke="#000000" points="1544.6571,-187 1541.6571,-191 1520.6571,-191 1517.6571,-187 1461.3429,-187 1461.3429,-151 1544.6571,-151 1544.6571,-187"/>
<text text-anchor="middle" x="1503" y="-164.8" font-family="Times,serif" font-size="14.00" fill="#000000">AppModule</text>
</g>
<!-- SharedModule&#45;&gt;AppModule -->
<g id="edge14" class="edge">
<title>SharedModule&#45;&gt;AppModule</title>
<path fill="none" stroke="#000000" d="M1075.4037,-122.0908C1075.4037,-145.1328 1075.4037,-182 1075.4037,-182 1075.4037,-182 1451.2217,-182 1451.2217,-182"/>
<polygon fill="#000000" stroke="#000000" points="1451.2218,-185.5001 1461.2217,-182 1451.2217,-178.5001 1451.2218,-185.5001"/>
</g>
<!-- AuthService -->
<g id="node8" class="node">
<title>AuthService</title>
<ellipse fill="#fdb462" stroke="#000000" cx="83" cy="-104" rx="59.1083" ry="18"/>
<text text-anchor="middle" x="83" y="-99.8" font-family="Times,serif" font-size="14.00" fill="#000000">AuthService</text>
</g>
<!-- AuthService&#45;&gt;AdminModule -->
<g id="edge7" class="edge">
<title>AuthService&#45;&gt;AdminModule</title>
<path fill="none" stroke="#000000" d="M83,-122.2921C83,-144.2057 83,-178 83,-178 83,-178 501.646,-178 501.646,-178"/>
<polygon fill="#000000" stroke="#000000" points="501.646,-181.5001 511.646,-178 501.6459,-174.5001 501.646,-181.5001"/>
</g>
<!-- AppComponent -->
<g id="node9" class="node">
<title>AppComponent</title>
<polygon fill="#ffffb3" stroke="#000000" points="2008.9399,-122 1903.0601,-122 1903.0601,-86 2008.9399,-86 2008.9399,-122"/>
<text text-anchor="middle" x="1956" y="-99.8" font-family="Times,serif" font-size="14.00" fill="#000000">AppComponent</text>
</g>
<!-- AppComponent&#45;&gt;AppModule -->
<g id="edge8" class="edge">
<title>AppComponent&#45;&gt;AppModule</title>
<path fill="none" stroke="#000000" d="M1956,-122.2921C1956,-144.2057 1956,-178 1956,-178 1956,-178 1554.8052,-178 1554.8052,-178"/>
<polygon fill="#000000" stroke="#000000" points="1554.8052,-174.5001 1544.8052,-178 1554.8051,-181.5001 1554.8052,-174.5001"/>
</g>
<!-- HomePageComponent -->
<g id="node10" class="node">
<title>HomePageComponent</title>
<polygon fill="#ffffb3" stroke="#000000" points="1885.2562,-122 1742.7438,-122 1742.7438,-86 1885.2562,-86 1885.2562,-122"/>
<text text-anchor="middle" x="1814" y="-99.8" font-family="Times,serif" font-size="14.00" fill="#000000">HomePageComponent</text>
</g>
<!-- HomePageComponent&#45;&gt;AppModule -->
<g id="edge9" class="edge">
<title>HomePageComponent&#45;&gt;AppModule</title>
<path fill="none" stroke="#000000" d="M1814,-122.1061C1814,-141.3391 1814,-169 1814,-169 1814,-169 1554.9428,-169 1554.9428,-169"/>
<polygon fill="#000000" stroke="#000000" points="1554.9429,-165.5001 1544.9428,-169 1554.9428,-172.5001 1554.9429,-165.5001"/>
</g>
<!-- MainLayoutComponent -->
<g id="node11" class="node">
<title>MainLayoutComponent</title>
<polygon fill="#ffffb3" stroke="#000000" points="1724.0407,-122 1573.9593,-122 1573.9593,-86 1724.0407,-86 1724.0407,-122"/>
<text text-anchor="middle" x="1649" y="-99.8" font-family="Times,serif" font-size="14.00" fill="#000000">MainLayoutComponent</text>
</g>
<!-- MainLayoutComponent&#45;&gt;AppModule -->
<g id="edge10" class="edge">
<title>MainLayoutComponent&#45;&gt;AppModule</title>
<path fill="none" stroke="#000000" d="M1649,-122.027C1649,-138.3976 1649,-160 1649,-160 1649,-160 1554.8377,-160 1554.8377,-160"/>
<polygon fill="#000000" stroke="#000000" points="1554.8378,-156.5001 1544.8377,-160 1554.8377,-163.5001 1554.8378,-156.5001"/>
</g>
<!-- PostComponent -->
<g id="node12" class="node">
<title>PostComponent</title>
<polygon fill="#ffffb3" stroke="#000000" points="1555.9512,-122 1450.0488,-122 1450.0488,-86 1555.9512,-86 1555.9512,-122"/>
<text text-anchor="middle" x="1503" y="-99.8" font-family="Times,serif" font-size="14.00" fill="#000000">PostComponent</text>
</g>
<!-- PostComponent&#45;&gt;AppModule -->
<g id="edge11" class="edge">
<title>PostComponent&#45;&gt;AppModule</title>
<path fill="none" stroke="#000000" d="M1503,-122.1061C1503,-122.1061 1503,-140.991 1503,-140.991"/>
<polygon fill="#000000" stroke="#000000" points="1499.5001,-140.9909 1503,-150.991 1506.5001,-140.991 1499.5001,-140.9909"/>
</g>
<!-- PostPageComponent -->
<g id="node13" class="node">
<title>PostPageComponent</title>
<polygon fill="#ffffb3" stroke="#000000" points="1432.1624,-122 1299.8376,-122 1299.8376,-86 1432.1624,-86 1432.1624,-122"/>
<text text-anchor="middle" x="1366" y="-99.8" font-family="Times,serif" font-size="14.00" fill="#000000">PostPageComponent</text>
</g>
<!-- PostPageComponent&#45;&gt;AppModule -->
<g id="edge12" class="edge">
<title>PostPageComponent&#45;&gt;AppModule</title>
<path fill="none" stroke="#000000" d="M1366,-122.2228C1366,-142.3652 1366,-172 1366,-172 1366,-172 1451.1511,-172 1451.1511,-172"/>
<polygon fill="#000000" stroke="#000000" points="1451.1511,-175.5001 1461.1511,-172 1451.151,-168.5001 1451.1511,-175.5001"/>
</g>
<!-- AppComponent  -->
<g id="node16" class="node">
<title>AppComponent </title>
<polygon fill="#80b1d3" stroke="#000000" points="1557.439,-252 1448.561,-252 1448.561,-216 1557.439,-216 1557.439,-252"/>
<text text-anchor="middle" x="1503" y="-229.8" font-family="Times,serif" font-size="14.00" fill="#000000">AppComponent </text>
</g>
<!-- AppModule&#45;&gt;AppComponent  -->
<g id="edge15" class="edge">
<title>AppModule&#45;&gt;AppComponent </title>
<path fill="none" stroke="#000000" stroke-dasharray="1,5" d="M1503,-187.1061C1503,-187.1061 1503,-205.991 1503,-205.991"/>
<polygon fill="#000000" stroke="#000000" points="1499.5001,-205.9909 1503,-215.991 1506.5001,-205.991 1499.5001,-205.9909"/>
</g>
<!-- AppRoutingModule -->
<g id="node15" class="node">
<title>AppRoutingModule</title>
<polygon fill="#8dd3c7" stroke="#000000" points="1276.2744,-122 1273.2744,-126 1252.2744,-126 1249.2744,-122 1147.7256,-122 1147.7256,-86 1276.2744,-86 1276.2744,-122"/>
<text text-anchor="middle" x="1212" y="-99.8" font-family="Times,serif" font-size="14.00" fill="#000000">AppRoutingModule</text>
</g>
<!-- AppRoutingModule&#45;&gt;AppModule -->
<g id="edge13" class="edge">
<title>AppRoutingModule&#45;&gt;AppModule</title>
<path fill="none" stroke="#000000" d="M1212,-122.0449C1212,-143.6623 1212,-177 1212,-177 1212,-177 1451.3068,-177 1451.3068,-177"/>
<polygon fill="#000000" stroke="#000000" points="1451.3068,-180.5001 1461.3068,-177 1451.3068,-173.5001 1451.3068,-180.5001"/>
</g>
</g>
</svg>
