<?xml version="1.0" encoding="UTF-8" standalone="no"?>
<!DOCTYPE svg PUBLIC "-//W3C//DTD SVG 1.1//EN"
 "http://www.w3.org/Graphics/SVG/1.1/DTD/svg11.dtd">
<!-- Generated by graphviz version 2.40.1 (20161225.0304)
 -->
<!-- Title: dependencies Pages: 1 -->
<svg width="1034pt" height="284pt"
 viewBox="0.00 0.00 1034.00 284.00" xmlns="http://www.w3.org/2000/svg" xmlns:xlink="http://www.w3.org/1999/xlink">
<g id="graph0" class="graph" transform="scale(1 1) rotate(0) translate(4 280)">
<title>dependencies</title>
<polygon fill="#ffffff" stroke="transparent" points="-4,4 -4,-280 1030,-280 1030,4 -4,4"/>
<text text-anchor="start" x="492.0091" y="-42.4" font-family="sans-serif" font-weight="bold" font-size="14.00" fill="#000000">Legend</text>
<polygon fill="#ffffb3" stroke="transparent" points="279,-10 279,-30 299,-30 299,-10 279,-10"/>
<text text-anchor="start" x="302.629" y="-15.4" font-family="sans-serif" font-size="14.00" fill="#000000"> &#160;Declarations</text>
<polygon fill="#8dd3c7" stroke="transparent" points="392,-10 392,-30 412,-30 412,-10 392,-10"/>
<text text-anchor="start" x="415.7251" y="-15.4" font-family="sans-serif" font-size="14.00" fill="#000000"> &#160;Module</text>
<polygon fill="#80b1d3" stroke="transparent" points="478,-10 478,-30 498,-30 498,-10 478,-10"/>
<text text-anchor="start" x="501.7812" y="-15.4" font-family="sans-serif" font-size="14.00" fill="#000000"> &#160;Bootstrap</text>
<polygon fill="#fdb462" stroke="transparent" points="575,-10 575,-30 595,-30 595,-10 575,-10"/>
<text text-anchor="start" x="598.6732" y="-15.4" font-family="sans-serif" font-size="14.00" fill="#000000"> &#160;Providers</text>
<polygon fill="#fb8072" stroke="transparent" points="671,-10 671,-30 691,-30 691,-10 671,-10"/>
<text text-anchor="start" x="694.7258" y="-15.4" font-family="sans-serif" font-size="14.00" fill="#000000"> &#160;Exports</text>
<g id="clust1" class="cluster">
<title>cluster_AppModule</title>
<polygon fill="none" stroke="#000000" stroke-dasharray="1,5" points="8,-70 8,-268 1018,-268 1018,-70 8,-70"/>
</g>
<g id="clust2" class="cluster">
<title>cluster_AppModule_declarations</title>
<polygon fill="none" stroke="#000000" points="285,-78 285,-130 1010,-130 1010,-78 285,-78"/>
</g>
<g id="clust8" class="cluster">
<title>cluster_AppModule_imports</title>
<polygon fill="none" stroke="#000000" points="16,-78 16,-130 277,-130 277,-78 16,-78"/>
</g>
<g id="clust10" class="cluster">
<title>cluster_AppModule_bootstrap</title>
<polygon fill="none" stroke="#000000" points="434,-208 434,-260 558,-260 558,-208 434,-208"/>
</g>
<!-- AppComponent -->
<g id="node1" class="node">
<title>AppComponent</title>
<polygon fill="#ffffb3" stroke="#000000" points="1001.9399,-122 896.0601,-122 896.0601,-86 1001.9399,-86 1001.9399,-122"/>
<text text-anchor="middle" x="949" y="-99.8" font-family="Times,serif" font-size="14.00" fill="#000000">AppComponent</text>
</g>
<!-- AppModule -->
<g id="node6" class="node">
<title>AppModule</title>
<polygon fill="#8dd3c7" stroke="#000000" points="537.6571,-187 534.6571,-191 513.6571,-191 510.6571,-187 454.3429,-187 454.3429,-151 537.6571,-151 537.6571,-187"/>
<text text-anchor="middle" x="496" y="-164.8" font-family="Times,serif" font-size="14.00" fill="#000000">AppModule</text>
</g>
<!-- AppComponent&#45;&gt;AppModule -->
<g id="edge1" class="edge">
<title>AppComponent&#45;&gt;AppModule</title>
<path fill="none" stroke="#000000" d="M949,-122.2921C949,-144.2057 949,-178 949,-178 949,-178 547.8052,-178 547.8052,-178"/>
<polygon fill="#000000" stroke="#000000" points="547.8052,-174.5001 537.8052,-178 547.8051,-181.5001 547.8052,-174.5001"/>
</g>
<!-- HomePageComponent -->
<g id="node2" class="node">
<title>HomePageComponent</title>
<polygon fill="#ffffb3" stroke="#000000" points="878.2562,-122 735.7438,-122 735.7438,-86 878.2562,-86 878.2562,-122"/>
<text text-anchor="middle" x="807" y="-99.8" font-family="Times,serif" font-size="14.00" fill="#000000">HomePageComponent</text>
</g>
<!-- HomePageComponent&#45;&gt;AppModule -->
<g id="edge2" class="edge">
<title>HomePageComponent&#45;&gt;AppModule</title>
<path fill="none" stroke="#000000" d="M807,-122.1061C807,-141.3391 807,-169 807,-169 807,-169 547.9428,-169 547.9428,-169"/>
<polygon fill="#000000" stroke="#000000" points="547.9429,-165.5001 537.9428,-169 547.9428,-172.5001 547.9429,-165.5001"/>
</g>
<!-- MainLayoutComponent -->
<g id="node3" class="node">
<title>MainLayoutComponent</title>
<polygon fill="#ffffb3" stroke="#000000" points="717.0407,-122 566.9593,-122 566.9593,-86 717.0407,-86 717.0407,-122"/>
<text text-anchor="middle" x="642" y="-99.8" font-family="Times,serif" font-size="14.00" fill="#000000">MainLayoutComponent</text>
</g>
<!-- MainLayoutComponent&#45;&gt;AppModule -->
<g id="edge3" class="edge">
<title>MainLayoutComponent&#45;&gt;AppModule</title>
<path fill="none" stroke="#000000" d="M642,-122.027C642,-138.3976 642,-160 642,-160 642,-160 547.8377,-160 547.8377,-160"/>
<polygon fill="#000000" stroke="#000000" points="547.8378,-156.5001 537.8377,-160 547.8377,-163.5001 547.8378,-156.5001"/>
</g>
<!-- PostComponent -->
<g id="node4" class="node">
<title>PostComponent</title>
<polygon fill="#ffffb3" stroke="#000000" points="548.9512,-122 443.0488,-122 443.0488,-86 548.9512,-86 548.9512,-122"/>
<text text-anchor="middle" x="496" y="-99.8" font-family="Times,serif" font-size="14.00" fill="#000000">PostComponent</text>
</g>
<!-- PostComponent&#45;&gt;AppModule -->
<g id="edge4" class="edge">
<title>PostComponent&#45;&gt;AppModule</title>
<path fill="none" stroke="#000000" d="M496,-122.1061C496,-122.1061 496,-140.991 496,-140.991"/>
<polygon fill="#000000" stroke="#000000" points="492.5001,-140.9909 496,-150.991 499.5001,-140.991 492.5001,-140.9909"/>
</g>
<!-- PostPageComponent -->
<g id="node5" class="node">
<title>PostPageComponent</title>
<polygon fill="#ffffb3" stroke="#000000" points="425.1624,-122 292.8376,-122 292.8376,-86 425.1624,-86 425.1624,-122"/>
<text text-anchor="middle" x="359" y="-99.8" font-family="Times,serif" font-size="14.00" fill="#000000">PostPageComponent</text>
</g>
<!-- PostPageComponent&#45;&gt;AppModule -->
<g id="edge5" class="edge">
<title>PostPageComponent&#45;&gt;AppModule</title>
<path fill="none" stroke="#000000" d="M359,-122.027C359,-138.3976 359,-160 359,-160 359,-160 444.1511,-160 444.1511,-160"/>
<polygon fill="#000000" stroke="#000000" points="444.1511,-163.5001 454.1511,-160 444.151,-156.5001 444.1511,-163.5001"/>
</g>
<!-- AppComponent  -->
<g id="node9" class="node">
<title>AppComponent </title>
<polygon fill="#80b1d3" stroke="#000000" points="550.439,-252 441.561,-252 441.561,-216 550.439,-216 550.439,-252"/>
<text text-anchor="middle" x="496" y="-229.8" font-family="Times,serif" font-size="14.00" fill="#000000">AppComponent </text>
</g>
<!-- AppModule&#45;&gt;AppComponent  -->
<g id="edge8" class="edge">
<title>AppModule&#45;&gt;AppComponent </title>
<path fill="none" stroke="#000000" stroke-dasharray="1,5" d="M496,-187.1061C496,-187.1061 496,-205.991 496,-205.991"/>
<polygon fill="#000000" stroke="#000000" points="492.5001,-205.9909 496,-215.991 499.5001,-205.991 492.5001,-205.9909"/>
</g>
<!-- AppRoutingModule -->
<g id="node7" class="node">
<title>AppRoutingModule</title>
<polygon fill="#8dd3c7" stroke="#000000" points="269.2744,-122 266.2744,-126 245.2744,-126 242.2744,-122 140.7256,-122 140.7256,-86 269.2744,-86 269.2744,-122"/>
<text text-anchor="middle" x="205" y="-99.8" font-family="Times,serif" font-size="14.00" fill="#000000">AppRoutingModule</text>
</g>
<!-- AppRoutingModule&#45;&gt;AppModule -->
<g id="edge6" class="edge">
<title>AppRoutingModule&#45;&gt;AppModule</title>
<path fill="none" stroke="#000000" d="M205,-122.1061C205,-141.3391 205,-169 205,-169 205,-169 444.3068,-169 444.3068,-169"/>
<polygon fill="#000000" stroke="#000000" points="444.3068,-172.5001 454.3068,-169 444.3068,-165.5001 444.3068,-172.5001"/>
</g>
<!-- SharedModule -->
<g id="node8" class="node">
<title>SharedModule</title>
<polygon fill="#8dd3c7" stroke="#000000" points="122.4231,-122 119.4231,-126 98.4231,-126 95.4231,-122 23.5769,-122 23.5769,-86 122.4231,-86 122.4231,-122"/>
<text text-anchor="middle" x="73" y="-99.8" font-family="Times,serif" font-size="14.00" fill="#000000">SharedModule</text>
</g>
<!-- SharedModule&#45;&gt;AppModule -->
<g id="edge7" class="edge">
<title>SharedModule&#45;&gt;AppModule</title>
<path fill="none" stroke="#000000" d="M73,-122.2921C73,-144.2057 73,-178 73,-178 73,-178 444.2835,-178 444.2835,-178"/>
<polygon fill="#000000" stroke="#000000" points="444.2835,-181.5001 454.2835,-178 444.2834,-174.5001 444.2835,-181.5001"/>
</g>
</g>
</svg>
